<svg xmlns="http://www.w3.org/2000/svg" height="599pt" version="1.1" viewBox="0 -21 599.318 599" width="599pt">
<g id="surface1">
<path d="M 41.308594 103.425781 L 557.6875 103.425781 C 580.503906 103.425781 599 121.921875 599 144.734375 L 599 516.527344 C 599 539.339844 580.5 557.835938 557.6875 557.835938 L 41.308594 557.835938 C 18.496094 557.835938 0 539.339844 0 516.527344 L 0 144.734375 C 0 121.921875 18.496094 103.425781 41.308594 103.425781 Z M 41.308594 103.425781 " style=" stroke:none;fill-rule:nonzero;fill:rgb(45.882353%,27.45098%,18.039216%);fill-opacity:1;" />
<path d="M 557.6875 103.425781 L 549.25 103.425781 L 41.828125 557.835938 L 557.6875 557.835938 C 580.503906 557.835938 599 539.339844 599 516.527344 L 599 144.734375 C 599 121.921875 580.503906 103.425781 557.6875 103.425781 Z M 557.6875 103.425781 " style=" stroke:none;fill-rule:nonzero;fill:rgb(43.137255%,25.882353%,16.862745%);fill-opacity:1;" />
<path d="M 196.222656 41.457031 L 196.222656 103.421875 L 237.535156 103.421875 L 237.535156 41.457031 L 361.464844 41.457031 L 361.464844 103.421875 L 402.773438 103.421875 L 402.773438 41.457031 C 402.773438 18.644531 384.277344 0.148438 361.464844 0.148438 L 237.535156 0.148438 C 214.722656 0.148438 196.222656 18.644531 196.222656 41.457031 Z M 196.222656 41.457031 " style=" stroke:none;fill-rule:nonzero;fill:rgb(41.960784%,25.098039%,16.470588%);fill-opacity:1;" />
<path d="M 599 289.320312 L 340.808594 402.921875 L 258.191406 402.921875 L 0 289.320312 L 0 175.71875 C 0 152.902344 18.496094 134.40625 41.308594 134.40625 L 557.6875 134.40625 C 580.503906 134.40625 599 152.902344 599 175.71875 Z M 599 289.320312 " style=" stroke:none;fill-rule:nonzero;fill:rgb(40%,23.921569%,15.686275%);fill-opacity:1;" />
<path d="M 599 258.339844 L 340.808594 371.941406 L 258.191406 371.941406 L 0 258.339844 L 0 144.734375 C 0 121.921875 18.496094 103.425781 41.308594 103.425781 L 557.6875 103.425781 C 580.503906 103.425781 599 121.921875 599 144.734375 Z M 599 258.339844 " style=" stroke:none;fill-rule:nonzero;fill:rgb(52.941176%,32.54902%,22.352941%);fill-opacity:1;" />
<path d="M 196.222656 82.769531 L 237.535156 82.769531 L 237.535156 103.425781 L 196.222656 103.425781 Z M 196.222656 82.769531 " style=" stroke:none;fill-rule:nonzero;fill:rgb(36.078431%,21.568627%,14.117647%);fill-opacity:1;" />
<path d="M 361.464844 82.769531 L 402.773438 82.769531 L 402.773438 103.425781 L 361.464844 103.425781 Z M 361.464844 82.769531 " style=" stroke:none;fill-rule:nonzero;fill:rgb(36.078431%,21.568627%,14.117647%);fill-opacity:1;" />
<path d="M 557.6875 103.425781 L 447.503906 103.425781 L 174.535156 335.144531 L 258.191406 371.941406 L 340.808594 371.941406 L 599 258.339844 L 599 144.734375 C 599 121.921875 580.503906 103.425781 557.6875 103.425781 Z M 557.6875 103.425781 " style=" stroke:none;fill-rule:nonzero;fill:rgb(49.019608%,29.019608%,19.607843%);fill-opacity:1;" />
<path d="M 258.191406 371.941406 L 340.808594 371.941406 L 340.808594 413.25 C 340.808594 436.066406 322.3125 454.5625 299.5 454.5625 C 276.6875 454.5625 258.191406 436.0625 258.191406 413.25 Z M 258.191406 371.941406 " style=" stroke:none;fill-rule:nonzero;fill:rgb(100%,63.529412%,18.823529%);fill-opacity:1;" />
<path d="M 289.171875 402.921875 L 309.828125 402.921875 L 309.828125 423.578125 L 289.171875 423.578125 Z M 289.171875 402.921875 " style=" stroke:none;fill-rule:nonzero;fill:rgb(99.215686%,71.372549%,18.431373%);fill-opacity:1;" />
<path d="M 258.191406 330.628906 L 340.808594 330.628906 L 340.808594 371.941406 L 258.191406 371.941406 Z M 258.191406 330.628906 " style=" stroke:none;fill-rule:nonzero;fill:rgb(100%,63.529412%,18.823529%);fill-opacity:1;" />
<path d="M 258.191406 330.628906 L 340.808594 330.628906 L 340.808594 351.285156 L 258.191406 351.285156 Z M 258.191406 330.628906 " style=" stroke:none;fill-rule:nonzero;fill:rgb(99.215686%,71.372549%,18.431373%);fill-opacity:1;" />
<path d="M 258.191406 371.941406 L 340.808594 371.941406 L 340.808594 392.59375 L 258.191406 392.59375 Z M 258.191406 371.941406 " style=" stroke:none;fill-rule:nonzero;fill:rgb(94.117647%,53.72549%,4.705882%);fill-opacity:1;" />
</g>
</svg>