<svg id="Layer_1" height="512" viewBox="0 0 512 512" width="512" xmlns="http://www.w3.org/2000/svg" data-name="Layer 1"><path d="m215 214h82v33h-82z" fill="#efc597"/><path d="m339.8 137.31a13.623 13.623 0 0 0 -11.8-10.15v-29.7l-.44-.46h-.01l-143.12.335-.43.325v29.49a13.637 13.637 0 0 0 -11.82 10.16 18.691 18.691 0 0 0 3.563 15.68 17.73 17.73 0 0 0 10.257 6v.11a69.528 69.528 0 0 0 20.6 49.21 70.733 70.733 0 0 0 8.595 7.23 69.728 69.728 0 0 0 81.689-.11 72.85 72.85 0 0 0 8.533-7.12 69.555 69.555 0 0 0 20.583-49.21v-.12a17.874 17.874 0 0 0 14.452-17.44 17.451 17.451 0 0 0 -.652-4.23z" fill="#ffd8b7"/><path d="m425.09 316.048a86.588 86.588 0 0 0 -55.9-49.594l-8.025-2.257h-210.33l-7.958 2.26a86.586 86.586 0 0 0 -62.729 80.9l1.062 132.483a15.04 15.04 0 0 0 15 15.16h319.58a15.212 15.212 0 0 0 15-15.36l1.07-132.285a86.533 86.533 0 0 0 -6.77-31.307z" fill="#fb6771"/><path d="m432.69 465.58c-1.01-11.1-10.7-19.79-22.03-20.62l-33.31-2.44-10.35 25.47v27.01h50.79a15.212 15.212 0 0 0 15-15.36z" fill="#efc597"/><path d="m432.28 407.09.41 58.49c-1.01-11.1-10.7-19.79-22.03-20.62l-33.39-2.44v-35.43z" fill="#ffd8b7"/><path d="m134.65 442.52-28.54 2.81c-14.76 1.35-26.58 12.67-26.58 27.67h-.27l-.05 6.84a15.04 15.04 0 0 0 15 15.16h50.79v-27.01z" fill="#efc597"/><path d="m134.73 407.09v35.43l-28.58 2.61c-14.76 1.35-26.62 12.65-26.62 27.47h-.27l.46-65.51z" fill="#ffd8b7"/><path d="m134.73 296.46h242.54v171.53h-242.54z" fill="#af8977"/><path d="m351.8 245.01h-95.8v51.45h121.27z" fill="#c79a83"/><path d="m160.2 245.01-25.47 51.45h121.27v-51.45z" fill="#e1b7a3"/><path d="m224.21 296.46v.17 38.55h66.46v-38.55-.17z" fill="#7f5d4a"/><path d="m288.49 467.82v.17h-62.1v-.17-55.23l10.16 10.7 10.5-10.7 10.39 10.7 10.39-10.7 10.5 10.7 10.16-10.7z" fill="#b3d1e7"/><path d="m134.73 296.46h30v171.53h-30z" fill="#916d5e"/><path d="m160.2 245.01-25.47 51.45h30l25.47-51.45z" fill="#cca08f"/><path d="m245.2 215.54a70.733 70.733 0 0 1 -8.595-7.23 69.528 69.528 0 0 1 -20.605-49.21v-.11l-2-61.33.43-.325h-30l-.43.325v29.49a13.637 13.637 0 0 0 -11.82 10.16 18.691 18.691 0 0 0 3.563 15.68 17.73 17.73 0 0 0 10.257 6v.11a69.528 69.528 0 0 0 20.6 49.21 70.733 70.733 0 0 0 8.595 7.23 69.747 69.747 0 0 0 55.774 11.528 69.3 69.3 0 0 1 -25.769-11.528z" fill="#e0b899"/><path d="m332.18 85.13a10.3 10.3 0 0 1 -3 8.77 10.486 10.486 0 0 1 -7.4 3.04l-131.54.12a10.533 10.533 0 0 1 -7.47-3.09 10.318 10.318 0 0 1 -2.95-8.73 85.524 85.524 0 0 1 5.64-20.96c11.7-28.48 39.77-46.8 70.56-46.8a77.094 77.094 0 0 1 42.43 12.7 74.856 74.856 0 0 1 28.12 34.05 85.34 85.34 0 0 1 5.61 20.9z" fill="#5fa8ed"/><path d="m329.18 93.9.11.12-1.73 3.29h-.01l-13.25 25.17h-116.6l-13.16-24.99-1.83-3.47.06-.05a10.533 10.533 0 0 0 7.47 3.09l131.54-.12a10.486 10.486 0 0 0 7.4-3.04z" fill="#49bdff"/><g fill="#f4f8fc"><path d="m168.667 333.059a6 6 0 0 1 -6-6v-6.3a6 6 0 0 1 12 0v6.3a6 6 0 0 1 -6 6z"/><path d="m168.667 418.058a6 6 0 0 1 -6-6v-66a6 6 0 0 1 12 0v66a6 6 0 0 1 -6 6z"/></g></svg>