<?xml version="1.0" encoding="iso-8859-1"?>
<!-- Generator: Adobe Illustrator 19.0.0, SVG Export Plug-In . SVG Version: 6.00 Build 0)  -->
<svg version="1.1" id="Capa_1" xmlns="http://www.w3.org/2000/svg" xmlns:xlink="http://www.w3.org/1999/xlink" x="0px" y="0px"
	 viewBox="0 0 512 512" style="enable-background:new 0 0 512 512;" xml:space="preserve">
<g>
	<g>
		<path d="M424.384,20.69C401.179,6.768,376.444,0,348.76,0c-33.123,0-65.635,9.753-97.076,19.185
			c-30.717,9.214-59.729,17.917-88.445,17.92c-0.004,0-0.008,0-0.012,0c-19.198,0-36.583-4.064-52.893-12.383V15
			c0-8.284-6.716-15-15-15s-15,6.716-15,15v18.552v203.896V497c0,8.284,6.716,15,15,15s15-6.716,15-15V261.453
			c16.567,6.4,34.052,9.547,52.905,9.547c33.121,0,65.631-9.753,97.07-19.185c30.719-9.215,59.732-17.919,88.451-17.919
			c22.092,0,41.779,5.369,60.188,16.414c4.633,2.78,10.404,2.854,15.108,0.191c4.702-2.662,7.609-7.649,7.609-13.053V33.552
			C431.665,28.283,428.9,23.4,424.384,20.69z"/>
	</g>
</g>
<g>
</g>
<g>
</g>
<g>
</g>
<g>
</g>
<g>
</g>
<g>
</g>
<g>
</g>
<g>
</g>
<g>
</g>
<g>
</g>
<g>
</g>
<g>
</g>
<g>
</g>
<g>
</g>
<g>
</g>
</svg>
