<svg id="Capa_1" enable-background="new 0 0 512 512" height="512" viewBox="0 0 512 512" width="512" xmlns="http://www.w3.org/2000/svg"><g><path d="m90 211h332v90h-332z" fill="#dfe7f4"/><path d="m90 256h332v45h-332z" fill="#c7cfe1"/><path d="m512 151v210c0 16.5-13.5 30-30 30s-30-13.5-30-30l-30-28.2v-151.8l30-30c0-16.5 13.5-30 30-30s30 13.5 30 30z" fill="#73bcff"/><path d="m90 181v151.8l-30 28.2c0 16.5-13.5 30-30 30s-30-13.5-30-30v-210c0-16.5 13.5-30 30-30s30 13.5 30 30z" fill="#73bcff"/><path d="m120 121v270c0 16.5-13.5 30-30 30s-30-13.5-30-30v-270c0-16.5 13.5-30 30-30s30 13.5 30 30z" fill="#76e2f8"/><path d="m0 256h90v76.8l-30 28.2c0 16.5-13.5 30-30 30s-30-13.5-30-30z" fill="#2ea6ff"/><path d="m512 256v105c0 16.5-13.5 30-30 30s-30-13.5-30-30l-30-28.2v-76.8z" fill="#2ea6ff"/><path d="m452 121v270c0 16.5-13.5 30-30 30s-30-13.5-30-30v-270c0-16.5 13.5-30 30-30s30 13.5 30 30z" fill="#76e2f8"/><g fill="#73bcff"><path d="m60 256h60v135c0 16.5-13.5 30-30 30s-30-13.5-30-30z"/><path d="m452 256v135c0 16.5-13.5 30-30 30s-30-13.5-30-30v-135z"/></g></g></svg>