<?xml version="1.0" encoding="utf-8"?>
<!-- Generator: Adobe Illustrator 23.0.3, SVG Export Plug-In . SVG Version: 6.00 Build 0)  -->
<svg version="1.1" id="Layer_1" xmlns="http://www.w3.org/2000/svg" xmlns:xlink="http://www.w3.org/1999/xlink" x="0px" y="0px"
	 viewBox="0 0 580.7 106" style="enable-background:new 0 0 580.7 106;" xml:space="preserve">
<style type="text/css">
	.st0{fill:#FFFDFD;}
</style>
<g>
	<g>
		<path class="st0" d="M94.9,6.7L51,82.8c-0.6,1.1-2.2,1.1-2.8,0l-7.1-12.3c-0.4-0.7-0.2-1.6,0.5-2.1c11.6-8.2,19.2-21.8,19.2-37.1
			c0-9-2.6-17.4-7.2-24.5c-0.7-1.1,0.1-2.5,1.4-2.5h38.5C94.8,4.3,95.5,5.6,94.9,6.7z"/>
		<path class="st0" d="M4.3,6.7l43.9,76.1c0.6,1.1,2.2,1.1,2.8,0l7.1-12.3c0.4-0.7,0.2-1.6-0.5-2.1c-11.6-8.2-19.2-21.8-19.2-37.1
			c0-9,2.6-17.4,7.2-24.5c0.7-1.1-0.1-2.5-1.4-2.5H5.7C4.5,4.3,3.7,5.6,4.3,6.7z"/>
	</g>
	<path class="st0" d="M119.8,39.4c2.6,2.4,4,6.2,4,11.3v31.4h-8l-0.5-3.9c-4.7,3.4-10.2,5.1-16.4,5.1c-2.6,0-4.9-0.5-7-1.5
		s-3.6-2.4-4.8-4.2c-1.1-1.8-1.7-3.9-1.7-6.2c0-3.8,1.3-6.9,4-9.4c2.7-2.5,6.2-4.3,10.7-5.5s9.4-1.8,14.8-2v-2.3
		c0-3.1-0.6-5.3-1.9-6.7c-1.2-1.4-3.3-2.1-6.3-2.1c-5,0-10.2,1.8-15.6,5.4l-3.9-6.2c6.6-4.5,13.5-6.8,20.7-6.8
		C113.2,35.8,117.2,37,119.8,39.4z M96.5,74.5c1.1,0.9,2.7,1.3,4.8,1.3c4.7,0,9.2-1.4,13.7-4.1V61.1c-6,0.3-10.8,1.2-14.5,2.8
		s-5.6,3.8-5.6,6.7C94.9,72.3,95.4,73.6,96.5,74.5z"/>
	<path class="st0" d="M159.8,36c1,0.1,2,0.3,3.1,0.6l-1.6,9.2c-2.3-0.8-4.5-1.2-6.4-1.2c-2.2,0-4.2,0.5-6.1,1.4
		c-1.9,1-3.6,2.8-5.4,5.5v30.7h-8.9V37l8.9-0.9v6.5c1.7-2.2,3.7-3.9,6-5c2.3-1.1,4.7-1.7,7.2-1.7C157.8,35.8,158.8,35.9,159.8,36z"
		/>
	<path class="st0" d="M173.8,81.9c-3.2-1-6.2-2.5-9-4.6l3.9-6.3c5,3.6,10.2,5.4,15.6,5.4c3.1,0,5.5-0.5,7.1-1.6
		c1.6-1.1,2.5-2.6,2.5-4.7c0-1.6-0.7-3.1-2.2-4.3c-1.5-1.2-4.1-2.3-7.8-3.2l-3.2-0.8c-4.8-1.2-8.3-2.9-10.5-4.9
		c-2.2-2-3.4-4.7-3.4-8.1c0-2.5,0.7-4.8,2.2-6.7c1.4-2,3.5-3.5,6-4.6c2.6-1.1,5.5-1.6,8.7-1.6c3.1,0,6.1,0.4,8.9,1.1
		s5.8,1.9,8.7,3.6l-3.6,6.3c-2.8-1.5-5.2-2.6-7.3-3.1c-2.1-0.6-4.3-0.9-6.6-0.9c-2.5,0-4.4,0.5-5.8,1.5c-1.4,1-2.1,2.3-2.1,4
		c0,1.4,0.6,2.6,1.7,3.4s3.1,1.6,5.9,2.3l3.2,0.8c3.9,1,7,2.2,9.4,3.5c2.4,1.3,4.1,2.9,5.2,4.7s1.6,4,1.6,6.5c0,2.8-0.7,5.2-2.1,7.3
		c-1.4,2.1-3.5,3.7-6.2,4.9s-6.1,1.8-10,1.8C180.6,83.4,177,82.9,173.8,81.9z"/>
	<path class="st0" d="M213,27c-1-0.6-1.7-1.4-2.3-2.3c-0.6-1-0.9-2-0.9-3.1c0-1.2,0.3-2.2,0.9-3.2c0.6-1,1.4-1.7,2.3-2.3
		c1-0.6,2-0.9,3.1-0.9c1.2,0,2.2,0.3,3.2,0.9c1,0.6,1.7,1.4,2.3,2.3c0.6,1,0.9,2,0.9,3.2c0,1.1-0.3,2.1-0.9,3.1
		c-0.6,1-1.4,1.7-2.3,2.3c-1,0.6-2,0.9-3.2,0.9C215,27.9,213.9,27.6,213,27z M211.7,82.2V37.1l8.9-1v46.1H211.7z"/>
	<path class="st0" d="M259.5,80.5c-3.6,1.9-7.4,2.9-11.3,2.9c-4.3,0-7.6-1.2-10.1-3.7s-3.7-6.1-3.7-11V44.1h-9.1v-7h9.1V26.9
		l8.9-1.4v11.6h15.2l-0.9,7h-14.3v23.3c0,5.8,2.1,8.6,6.4,8.6c1.2,0,2.4-0.1,3.6-0.4c1.2-0.3,2.4-0.7,3.8-1.3L259.5,80.5z"/>
	<path class="st0" d="M306.6,37.1v0.6l-17.2,47.7c-1.5,4.2-3.1,7.5-4.8,10s-3.7,4.3-5.8,5.5s-4.7,1.7-7.7,1.7c-3,0-6-0.5-9-1.5
		l2.4-6.8c2,0.6,4,0.9,5.9,0.9c1.6,0,2.9-0.2,4-0.7c1.1-0.5,2.2-1.4,3.2-2.8s2.1-3.4,3.1-6.2l1.2-3.3h-2.4l-17.3-44.5v-0.6h9.4
		l10.6,28.8l1.1,3.1l1.6,4.8l2.6-7.9l9.9-28.8L306.6,37.1L306.6,37.1z"/>
	<path class="st0" d="M347.7,39.1c2.5,2.2,3.7,5.8,3.7,10.7v32.3h-8.8V53.4c0-2.5-0.3-4.5-0.8-5.9c-0.5-1.4-1.4-2.4-2.6-3
		c-1.2-0.6-2.8-0.9-4.9-0.9s-4.2,0.3-6.5,0.8c-2.3,0.5-4.5,1.3-6.4,2.3v35.5h-8.9V11.3l8.9-1v30c5.6-3,11-4.4,16.3-4.4
		C341.9,35.8,345.3,36.9,347.7,39.1z"/>
	<path class="st0" d="M400.5,36v46.1h-7.9l-0.5-3.4c-5.3,3.1-10.6,4.6-16.1,4.6c-4.2,0-7.6-1.2-10.2-3.5c-2.6-2.4-4-6-4-10.8v-32
		l8.9-1v30.5c0,2.3,0.3,4.1,0.8,5.4s1.4,2.3,2.7,2.9c1.2,0.6,3,0.9,5.2,0.9c3.3,0,7.4-1.3,12.4-3.8V37.1L400.5,36z"/>
	<path class="st0" d="M445.5,38.8c2.7,2,4.7,4.6,6,8s2,7.2,2,11.5c0,6-1.3,10.8-3.9,14.6c-2.6,3.7-5.8,6.4-9.7,8.1
		c-3.9,1.6-8,2.5-12.2,2.5c-4.6,0-10-1-16.2-3V11.3l8.9-1v29.5c4.9-2.7,9.9-4,15.1-4C439.5,35.8,442.8,36.8,445.5,38.8z M439.3,71.9
		c3.1-2.8,4.6-7.4,4.6-13.9c0-4.7-0.9-8.3-2.7-10.8c-1.8-2.5-4.5-3.8-8.2-3.8c-4,0-8.3,1-12.7,3v28.8c2.6,0.5,4.9,0.8,7,0.8
		C432.3,76.1,436.2,74.7,439.3,71.9z"/>
	<path class="st0" d="M463.5,80.5c-1.3-0.8-2.4-1.8-3.2-3.1s-1.2-2.7-1.2-4.3s0.4-3,1.2-4.3s1.8-2.4,3.2-3.1
		c1.3-0.8,2.8-1.1,4.3-1.1s3,0.4,4.3,1.1c1.3,0.8,2.4,1.8,3.2,3.1c0.8,1.3,1.2,2.7,1.2,4.3c0,1.5-0.4,3-1.2,4.3
		c-0.8,1.3-1.8,2.4-3.2,3.1c-1.3,0.8-2.8,1.1-4.3,1.1S464.8,81.2,463.5,80.5z"/>
	<path class="st0" d="M524.8,50.1v32h-8.9V53.4c0-2.5-0.3-4.5-0.8-5.9c-0.5-1.4-1.4-2.4-2.6-3s-2.8-0.9-4.9-0.9s-4.3,0.3-6.6,0.9
		c-2.3,0.6-4.5,1.4-6.6,2.3v35.4h-8.9V37.1l8.9-1v4.3c5.8-3,11.3-4.5,16.5-4.5C520.2,35.8,524.8,40.6,524.8,50.1z"/>
	<path class="st0" d="M570.9,76.7c2.6,0.9,4.5,2.2,5.8,3.8c1.3,1.6,2,3.8,2,6.4c0,3.2-1,5.9-3,8.3c-2,2.4-4.9,4.2-8.7,5.5
		c-3.8,1.3-8.3,1.9-13.5,1.9c-6.7,0-12-1.1-16-3.2c-4-2.1-6-5.3-6-9.6c0-2.6,0.6-4.8,1.9-6.5c1.3-1.7,3.1-3.3,5.5-4.8
		c-2.1-1.4-3.1-3.3-3.1-5.6c0-1.4,0.4-2.6,1.2-3.8c0.8-1.2,2-2.4,3.8-3.6c-2.5-1.4-4.3-3.2-5.6-5.5s-1.8-4.9-1.8-7.8
		c0-3.8,0.9-6.9,2.8-9.4s4.4-4.3,7.5-5.4c3.1-1.1,6.5-1.6,10.3-1.6c1.9,0,3.9,0.2,6,0.5l15.3-6.4l3.1,7.2l-10.5,3
		c2,1.5,3.5,3.3,4.4,5.4c1,2.1,1.4,4.3,1.4,6.7c0,5.6-1.9,9.6-5.8,12.1s-8.8,3.8-14.8,3.8c-2.7,0-5-0.2-6.9-0.7
		c-0.9,1-1.3,2-1.3,3.2c0,0.8,0.3,1.4,0.8,1.8c0.5,0.5,1.4,0.8,2.7,1s3,0.5,5.2,0.7l7.3,0.6C565,75.2,568.3,75.8,570.9,76.7z
		 M564.8,93.9c3-1.2,4.5-3.1,4.5-5.8c0-1.2-0.4-2.2-1.2-3c-0.8-0.8-2.1-1.4-3.8-1.9c-1.7-0.5-4-0.8-6.8-1.1l-7.3-0.6
		c-2.2-0.2-4.2-0.5-6.1-0.9c-1.3,1.2-2.3,2.4-3,3.8s-1.1,2.7-1.1,4.1c0,2.4,1.1,4.2,3.3,5.4c2.2,1.2,5.7,1.8,10.4,1.8
		C558.1,95.6,561.8,95.1,564.8,93.9z M544.9,45.1c-1.8,1.8-2.7,4.1-2.7,7c0,3,0.9,5.3,2.8,7c1.8,1.7,4.8,2.6,8.8,2.6
		c7.4,0,11.1-3.1,11.1-9.3c0-3.1-1-5.5-2.9-7.3s-4.8-2.7-8.4-2.7C549.6,42.4,546.7,43.3,544.9,45.1z"/>
</g>
</svg>
