<?xml version="1.0" encoding="utf-8"?>
<!-- Generator: Adobe Illustrator 23.0.3, SVG Export Plug-In . SVG Version: 6.00 Build 0)  -->
<svg version="1.1" id="Layer_1" xmlns="http://www.w3.org/2000/svg" xmlns:xlink="http://www.w3.org/1999/xlink" x="0px" y="0px"
	 viewBox="0 0 275.7 240" style="enable-background:new 0 0 275.7 240;" xml:space="preserve">
<style type="text/css">
	.st0{fill:#23A399;}
	.st1{fill:url(#SVGID_1_);}
</style>
<g>
	<path class="st0" d="M273.4,8.2l-131,226.9c-1.9,3.2-6.5,3.2-8.4,0l-21.2-36.7c-1.2-2.2-0.6-4.9,1.4-6.4
		c34.6-24.5,57.2-64.9,57.2-110.6c0-26.9-7.8-52-21.4-73.1c-2.1-3.2,0.3-7.4,4.1-7.4h115C273,0.9,275.3,5,273.4,8.2z"/>
	
		<linearGradient id="SVGID_1_" gradientUnits="userSpaceOnUse" x1="2.4807" y1="200.6485" x2="164.3569" y2="200.6485" gradientTransform="matrix(1 0 0 -1 0 319.8898)">
		<stop  offset="0" style="stop-color:#0D9E9A"/>
		<stop  offset="1" style="stop-color:#096A6A"/>
	</linearGradient>
	<path class="st1" d="M3.1,8.2l131,226.9c1.9,3.2,6.5,3.2,8.4,0l21.2-36.7c1.2-2.2,0.6-4.9-1.4-6.4C127.7,167.5,105,127.1,105,81.4
		c0-26.9,7.8-52,21.4-73.1c2.1-3.2-0.3-7.4-4.1-7.4H7.3C3.6,0.9,1.3,5,3.1,8.2z"/>
</g>
</svg>
