<?xml version="1.0" encoding="utf-8"?>
<!-- Generator: Adobe Illustrator 23.0.5, SVG Export Plug-In . SVG Version: 6.00 Build 0)  -->
<svg version="1.1" id="Layer_1" xmlns="http://www.w3.org/2000/svg" xmlns:xlink="http://www.w3.org/1999/xlink" x="0px" y="0px"
	 viewBox="0 0 998.72 720" style="enable-background:new 0 0 998.72 720;" xml:space="preserve">
<style type="text/css">
	.st0{fill:#23A399;}
	.st1{fill:url(#SVGID_1_);}
</style>
<g>
	<g>
		<path class="st0" d="M302.9,269.73L259,345.78c-0.63,1.08-2.19,1.08-2.82,0l-7.1-12.29c-0.42-0.73-0.21-1.65,0.47-2.14
			c11.61-8.23,19.19-21.77,19.19-37.08c0-9.02-2.63-17.42-7.16-24.49c-0.69-1.08,0.1-2.49,1.38-2.49h38.54
			C302.75,267.29,303.53,268.64,302.9,269.73z"/>
		<linearGradient id="SVGID_1_" gradientUnits="userSpaceOnUse" x1="212.0849" y1="306.9387" x2="266.345" y2="306.9387">
			<stop  offset="0" style="stop-color:#0D9E9A"/>
			<stop  offset="1" style="stop-color:#096A6A"/>
		</linearGradient>
		<path class="st1" d="M212.31,269.73l43.91,76.05c0.63,1.08,2.19,1.08,2.82,0l7.1-12.29c0.42-0.73,0.21-1.65-0.47-2.14
			c-11.61-8.23-19.19-21.77-19.19-37.08c0-9.02,2.63-17.42,7.16-24.49c0.69-1.08-0.1-2.49-1.38-2.49h-38.54
			C212.46,267.29,211.68,268.64,212.31,269.73z"/>
	</g>
	<path d="M327.83,302.43c2.64,2.4,3.96,6.18,3.96,11.33v31.41h-8.03l-0.51-3.91c-4.74,3.43-10.19,5.15-16.37,5.15
		c-2.61,0-4.94-0.5-7-1.49c-2.06-0.99-3.65-2.4-4.79-4.22c-1.13-1.82-1.7-3.9-1.7-6.23c0-3.77,1.34-6.91,4.02-9.42
		c2.68-2.5,6.25-4.34,10.71-5.51c4.46-1.17,9.4-1.82,14.83-1.96v-2.27c0-3.09-0.62-5.34-1.85-6.74c-1.24-1.41-3.33-2.11-6.28-2.11
		c-5.01,0-10.23,1.79-15.65,5.35l-3.91-6.18c6.59-4.53,13.49-6.8,20.7-6.8C321.22,298.82,325.18,300.02,327.83,302.43z
		 M304.45,337.54c1.06,0.89,2.66,1.34,4.79,1.34c4.67,0,9.23-1.37,13.7-4.12v-10.71c-5.97,0.28-10.81,1.2-14.52,2.78
		c-3.71,1.58-5.56,3.81-5.56,6.69C302.86,335.31,303.39,336.65,304.45,337.54z"/>
	<path d="M367.79,299.03c0.96,0.14,1.99,0.34,3.09,0.62l-1.65,9.16c-2.34-0.82-4.46-1.24-6.39-1.24c-2.2,0-4.22,0.48-6.08,1.44
		c-1.85,0.96-3.64,2.78-5.35,5.46v30.69h-8.86v-45.2l8.86-0.93v6.49c1.72-2.2,3.71-3.86,5.97-4.99c2.27-1.13,4.67-1.7,7.21-1.7
		C365.76,298.82,366.83,298.89,367.79,299.03z"/>
	<path d="M381.78,344.9c-3.23-0.99-6.21-2.52-8.96-4.58l3.91-6.28c5.01,3.57,10.23,5.35,15.65,5.35c3.09,0,5.46-0.53,7.1-1.6
		c1.65-1.06,2.47-2.63,2.47-4.68c0-1.65-0.74-3.07-2.22-4.27c-1.48-1.2-4.07-2.28-7.77-3.24l-3.19-0.82
		c-4.81-1.24-8.32-2.87-10.55-4.89c-2.23-2.02-3.35-4.72-3.35-8.08c0-2.54,0.72-4.79,2.16-6.74c1.44-1.96,3.45-3.48,6.02-4.58
		c2.58-1.1,5.47-1.65,8.7-1.65c3.09,0,6.06,0.36,8.91,1.08c2.85,0.72,5.75,1.94,8.7,3.65l-3.6,6.28c-2.82-1.51-5.25-2.56-7.31-3.14
		c-2.06-0.58-4.26-0.88-6.59-0.88c-2.47,0-4.41,0.5-5.82,1.49c-1.41,1-2.11,2.32-2.11,3.96c0,1.44,0.57,2.56,1.7,3.35
		c1.13,0.79,3.1,1.56,5.92,2.32l3.19,0.82c3.91,1.03,7.05,2.2,9.42,3.5c2.37,1.3,4.1,2.87,5.2,4.69c1.1,1.82,1.65,4,1.65,6.54
		c0,2.75-0.71,5.17-2.11,7.26c-1.41,2.09-3.48,3.72-6.23,4.89c-2.75,1.17-6.08,1.75-9.99,1.75
		C388.64,346.39,385.01,345.9,381.78,344.9z"/>
	<path d="M420.97,290.02c-0.96-0.58-1.73-1.35-2.32-2.32c-0.58-0.96-0.88-1.99-0.88-3.09c0-1.17,0.29-2.23,0.88-3.19
		c0.58-0.96,1.35-1.73,2.32-2.32c0.96-0.58,1.99-0.87,3.09-0.87c1.17,0,2.23,0.29,3.19,0.87c0.96,0.59,1.73,1.36,2.32,2.32
		c0.58,0.96,0.88,2.03,0.88,3.19c0,1.1-0.29,2.13-0.88,3.09c-0.58,0.96-1.36,1.73-2.32,2.32c-0.96,0.58-2.03,0.87-3.19,0.87
		C422.96,290.89,421.93,290.6,420.97,290.02z M419.74,345.16v-45.1l8.86-1.03v46.13H419.74z"/>
	<path d="M467.54,343.51c-3.57,1.92-7.35,2.88-11.33,2.88c-4.26,0-7.62-1.22-10.09-3.66c-2.47-2.44-3.71-6.09-3.71-10.97v-24.71
		h-9.06v-7h9.06v-10.19l8.86-1.44v11.64h15.24l-0.93,7h-14.31v23.27c0,5.77,2.13,8.65,6.38,8.65c1.23,0,2.44-0.14,3.6-0.41
		c1.17-0.27,2.44-0.72,3.81-1.34L467.54,343.51z"/>
	<path d="M514.6,300.06v0.62l-17.2,47.68c-1.51,4.19-3.12,7.53-4.84,10.04c-1.72,2.51-3.66,4.33-5.82,5.46
		c-2.16,1.13-4.72,1.7-7.67,1.7c-3.02,0-6.01-0.51-8.96-1.54l2.37-6.8c1.99,0.62,3.95,0.93,5.87,0.93c1.58,0,2.92-0.24,4.02-0.72
		c1.1-0.48,2.18-1.41,3.24-2.78c1.06-1.37,2.11-3.43,3.14-6.18l1.24-3.29h-2.37l-17.3-44.48v-0.62h9.37l10.61,28.83l1.13,3.09
		l1.65,4.84l2.58-7.93l9.89-28.83H514.6z"/>
	<path d="M555.73,302.12c2.47,2.2,3.71,5.77,3.71,10.71v32.33h-8.85v-28.73c0-2.54-0.26-4.51-0.77-5.92
		c-0.52-1.41-1.37-2.42-2.58-3.04c-1.2-0.62-2.83-0.93-4.89-0.93c-2.06,0-4.24,0.28-6.54,0.82c-2.3,0.55-4.45,1.3-6.44,2.27v35.52
		h-8.86v-70.84l8.86-1.03v29.96c5.63-2.95,11.05-4.43,16.27-4.43C549.89,298.82,553.26,299.92,555.73,302.12z"/>
	<path d="M608.54,299.03v46.13h-7.93l-0.52-3.4c-5.29,3.09-10.64,4.63-16.06,4.63c-4.19,0-7.6-1.18-10.25-3.55
		c-2.64-2.37-3.97-5.95-3.97-10.76v-32.02l8.86-1.03v30.48c0,2.27,0.27,4.07,0.82,5.41c0.55,1.34,1.44,2.3,2.68,2.88
		c1.23,0.59,2.95,0.88,5.15,0.88c3.29,0,7.41-1.27,12.36-3.81v-34.8L608.54,299.03z"/>
	<path d="M653.52,301.76c2.68,1.96,4.67,4.63,5.97,8.03c1.3,3.4,1.96,7.23,1.96,11.48c0,5.97-1.29,10.83-3.86,14.57
		c-2.57,3.74-5.82,6.44-9.73,8.08c-3.91,1.65-7.96,2.47-12.15,2.47c-4.6,0-9.99-1-16.17-2.99v-69.09l8.86-1.03v29.55
		c4.87-2.68,9.92-4.02,15.14-4.02C647.51,298.82,650.84,299.8,653.52,301.76z M647.34,334.91c3.09-2.78,4.63-7.4,4.63-13.85
		c0-4.67-0.89-8.27-2.68-10.81c-1.78-2.54-4.53-3.81-8.24-3.81c-4.05,0-8.27,1-12.66,2.99v28.83c2.61,0.55,4.94,0.82,7,0.82
		C640.27,339.08,644.25,337.69,647.34,334.91z"/>
	<path class="st0" d="M671.49,343.48c-1.35-0.77-2.41-1.8-3.18-3.11c-0.77-1.31-1.15-2.73-1.15-4.26c0-1.53,0.38-2.95,1.15-4.26
		c0.77-1.31,1.83-2.35,3.18-3.11c1.35-0.77,2.8-1.15,4.33-1.15c1.53,0,2.98,0.38,4.33,1.15c1.35,0.77,2.41,1.81,3.18,3.11
		c0.77,1.31,1.15,2.73,1.15,4.26c0,1.54-0.39,2.96-1.15,4.26c-0.77,1.31-1.83,2.35-3.18,3.11c-1.35,0.77-2.8,1.15-4.33,1.15
		C674.29,344.63,672.84,344.25,671.49,343.48z"/>
	<path d="M732.77,313.14v32.02h-8.86v-28.73c0-2.54-0.26-4.51-0.77-5.92c-0.52-1.41-1.37-2.42-2.57-3.04
		c-1.2-0.62-2.83-0.93-4.89-0.93c-2.06,0-4.26,0.29-6.59,0.88c-2.33,0.58-4.53,1.36-6.59,2.32v35.42h-8.86v-45.1l8.86-1.03v4.32
		c5.77-3.02,11.26-4.53,16.47-4.53C728.17,298.82,732.77,303.59,732.77,313.14z"/>
	<path d="M778.86,339.7c2.57,0.89,4.51,2.16,5.82,3.81c1.3,1.65,1.96,3.78,1.96,6.38c0,3.16-1.01,5.92-3.04,8.29
		c-2.03,2.37-4.93,4.19-8.7,5.46c-3.78,1.27-8.27,1.91-13.49,1.91c-6.66,0-11.98-1.06-15.96-3.19c-3.98-2.13-5.97-5.32-5.97-9.58
		c0-2.61,0.63-4.77,1.91-6.49c1.27-1.72,3.1-3.33,5.51-4.84c-2.06-1.44-3.09-3.3-3.09-5.56c0-1.37,0.4-2.64,1.18-3.81
		c0.79-1.17,2.04-2.37,3.76-3.6c-2.47-1.37-4.32-3.19-5.56-5.46s-1.85-4.87-1.85-7.83c0-3.77,0.94-6.9,2.83-9.37
		c1.89-2.47,4.38-4.26,7.47-5.35c3.09-1.1,6.52-1.65,10.3-1.65c1.92,0,3.91,0.17,5.97,0.52l15.34-6.38l3.09,7.21l-10.5,2.99
		c1.99,1.51,3.47,3.31,4.43,5.41c0.96,2.09,1.44,4.34,1.44,6.74c0,5.56-1.94,9.61-5.82,12.15c-3.88,2.54-8.8,3.81-14.78,3.81
		c-2.68,0-4.98-0.24-6.9-0.72c-0.89,0.96-1.34,2.03-1.34,3.19c0,0.76,0.27,1.36,0.82,1.8c0.55,0.45,1.44,0.79,2.68,1.03
		c1.24,0.24,2.99,0.46,5.25,0.67l7.31,0.62C772.97,338.19,776.29,338.81,778.86,339.7z M772.78,356.9c2.99-1.17,4.48-3.09,4.48-5.77
		c0-1.24-0.41-2.25-1.24-3.04c-0.82-0.79-2.09-1.41-3.81-1.85c-1.72-0.45-3.98-0.81-6.8-1.08l-7.31-0.62
		c-2.2-0.21-4.22-0.52-6.08-0.93c-1.31,1.17-2.32,2.42-3.04,3.76c-0.72,1.34-1.08,2.69-1.08,4.07c0,2.4,1.1,4.21,3.29,5.41
		c2.2,1.2,5.66,1.8,10.4,1.8C766.07,358.65,769.8,358.06,772.78,356.9z M752.91,308.09c-1.82,1.79-2.73,4.12-2.73,7
		c0,2.95,0.93,5.29,2.78,7c1.85,1.72,4.77,2.57,8.75,2.57c7.41,0,11.12-3.09,11.12-9.27c0-3.09-0.98-5.53-2.94-7.31
		c-1.96-1.78-4.75-2.68-8.39-2.68C757.6,305.41,754.73,306.3,752.91,308.09z"/>
</g>
</svg>
