<svg id="Layer_3" enable-background="new 0 0 64 64" height="512" viewBox="0 0 64 64" width="512" xmlns="http://www.w3.org/2000/svg"><g fill="#71b38e"><path d="m56 18h2v10h-2z"/><path d="m57 27-3 3 3 6 3-6z"/><path d="m2 50h48c3.314 0 6-2.686 6-6 0-3.314-2.686-6-6-6h-48l2.586 2.586c.905.905 1.414 2.133 1.414 3.414 0 1.281-.509 2.509-1.414 3.414z"/></g><path d="m56 6c-1.889-.63-3.37-2.111-4-4-.63 1.889-2.111 3.37-4 4 1.889.63 3.37 2.111 4 4 .63-1.889 2.111-3.37 4-4z" fill="#85b6cf"/><path d="m14 8c-1.889-.63-3.37-2.111-4-4-.63 1.889-2.111 3.37-4 4 1.889.63 3.37 2.111 4 4 .63-1.889 2.111-3.37 4-4z" fill="#85b6cf"/><path d="m4 18 27-9 27 9-27 11z" fill="#8b8a8b"/><path d="m31 29-19-7.741v10.741l19 8 19-8v-10.741z" fill="#686868"/><path d="m4 18 24 9.778 24-9.778-24-8z" fill="#bab8b9"/><path d="m62 62h-48c-3.314 0-6-2.686-6-6 0-3.314 2.686-6 6-6h48l-2.586 2.586c-.905.905-1.414 2.133-1.414 3.414 0 1.281.509 2.509 1.414 3.414z" fill="#f8cf6a"/><path d="m13 50.09v11.82c-2.837-.477-5-2.938-5-5.91s2.163-5.433 5-5.91z" fill="#ba9b50"/><path d="m51 38.09v11.82c2.837-.477 5-2.938 5-5.91s-2.163-5.433-5-5.91z" fill="#395a47"/><path d="m58 56c0-.339.041-.673.11-1h-45.11v2h45.11c-.069-.327-.11-.661-.11-1z" fill="#ba9b50"/><path d="m6 44c0 .339-.041.673-.11 1h45.11v-2h-45.11c.069.327.11.661.11 1z" fill="#395a47"/></svg>