<svg height="512pt" viewBox="0 -21 512 512" width="512pt" xmlns="http://www.w3.org/2000/svg"><path d="m35.355469 235.046875 220.644531-235.046875 220.644531 235.046875-220.644531 235.050781zm0 0" fill="#7ab7d1"/><path d="m256 317.21875v-82.171875h-75.703125c.519531 2.511719.777344 5.121094.730469 7.796875-.324219 19.726562-16.3125 35.132812-36.035156 34.757812-19.210938-.367187-34.667969-16.054687-34.667969-35.351562 0-2.46875.253906-4.875.734375-7.199219h-75.703125v82.167969c19.527343 0 35.355469 15.828125 35.355469 35.355469 0 19.523437-15.828126 35.355469-35.355469 35.355469v52.953124c0 16.136719 13.078125 29.214844 29.214843 29.214844h45.75c0-19.527344 15.832032-35.355468 35.359376-35.355468 19.523437 0 35.355468 15.828124 35.355468 35.355468h74.964844v-82.167968c19.527344 0 35.355469-15.832032 35.355469-35.359376 0-19.523437-15.828125-35.351562-35.355469-35.351562zm0 0" fill="#87cde9"/><path d="m256 82.167969v-82.167969h-75.703125c.519531 2.511719.777344 5.125.730469 7.800781-.328125 19.726563-16.316406 35.132813-36.042969 34.75-19.207031-.367187-34.660156-16.054687-34.660156-35.347656 0-2.46875.253906-4.878906.734375-7.203125h-46.488282c-16.136718 0-29.214843 13.082031-29.214843 29.214844v52.953125c-19.527344 0-35.355469 15.828125-35.355469 35.355469 0 19.527343 15.828125 35.359374 35.355469 35.359374v82.164063h75.703125c-.519532 2.515625-.777344 5.125-.730469 7.800781.328125 19.730469 16.320313 35.132813 36.050781 34.75 19.203125-.371094 34.65625-16.054687 34.65625-35.347656 0-2.46875-.257812-4.875-.738281-7.203125h75.703125v-82.167969c-19.527344 0-35.355469-15.828125-35.355469-35.355468 0-19.527344 15.828125-35.355469 35.355469-35.355469zm0 0" fill="#f9db69"/><path d="m476.644531 82.167969v-52.953125c0-16.136719-13.078125-29.214844-29.214843-29.214844h-45.75c0 19.527344-15.832032 35.355469-35.359376 35.355469-19.523437 0-35.355468-15.828125-35.355468-35.355469h-74.964844v82.167969c-19.527344 0-35.355469 15.828125-35.355469 35.355469 0 19.527343 15.828125 35.359374 35.355469 35.359374v82.164063h75.703125c3.328125-16.070313 17.5625-28.152344 34.617187-28.152344 17.058594 0 31.292969 12.082031 34.621094 28.152344h75.703125v-82.167969c-19.527343 0-35.355469-15.828125-35.355469-35.355468 0-19.527344 15.828126-35.355469 35.355469-35.355469zm0 0" fill="#fb7073"/><path d="m476.644531 317.21875v-82.171875h-75.703125c-3.328125-16.070313-17.5625-28.152344-34.621094-28.152344-17.054687 0-31.289062 12.082031-34.617187 28.152344h-75.703125v82.167969c19.527344 0 35.355469 15.832031 35.355469 35.355468 0 19.527344-15.828125 35.359376-35.355469 35.359376v82.167968h74.964844c0-19.527344 15.832031-35.355468 35.355468-35.355468 19.527344 0 35.359376 15.828124 35.359376 35.355468h45.75c16.136718 0 29.214843-13.078125 29.214843-29.214844v-52.953124c19.527344 0 35.355469-15.828126 35.355469-35.355469 0-19.527344-15.828125-35.355469-35.355469-35.355469zm0 0" fill="#5bb68d"/></svg>