<svg height="488pt" viewBox="-5 0 488 488.006" width="488pt" xmlns="http://www.w3.org/2000/svg"><path d="m462.9375 225.648438v-121.199219c0-5.664063-4.578125-10.253907-10.230469-10.253907-5.648437 0-10.230469 4.589844-10.230469 10.253907v121.199219c-6.355468 3.574218-10.65625 10.371093-10.65625 18.179687v33c0 2.820313 2.285157 5.109375 5.105469 5.109375h31.566407c2.820312 0 5.105468-2.289062 5.105468-5.109375v-33c0-7.808594-4.304687-14.605469-10.660156-18.179687zm0 0" fill="#ffea94"/><path d="m350.625 122.828125c-28.285156-5.527344-134.21875-23.085937-239.90625-.046875-4.195312.914062-6.917969 3.199219-6.917969 5.695312v57.070313c0 2.589844 2.898438 4.898437 7.3125 5.757813 28.289063 5.527343 134.222657 23.085937 239.910157.050781 4.191406-.914063 6.914062-3.203125 6.914062-5.699219v-57.066406c0-2.59375-2.898438-4.898438-7.3125-5.761719zm0 0" fill="#4671c6"/><path d="m236.140625 206.933594c-59.152344 0-107.175781-8.066406-125.789063-11.703125-6.40625-1.253907-10.546874-5.054688-10.546874-9.6875v-56.949219c0-4.625 3.953124-8.390625 10.066406-9.722656 105.847656-23.074219 211.628906-5.8125 241.527344.03125 6.402343 1.253906 10.542968 5.054687 10.542968 9.6875v56.953125c0 4.617187-3.949218 8.390625-10.066406 9.722656-39.941406 8.699219-79.886719 11.667969-115.734375 11.667969zm-10.519531-91.742188c-35.347656 0-74.699219 2.917969-114.046875 11.496094-2.714844.589844-3.695313 1.691406-3.792969 1.933594l.023438 56.917968c.082031.113282 1.140624 1.265626 4.078124 1.839844 29.519532 5.765625 133.933594 22.808594 238.289063.066406 2.710937-.589843 3.691406-1.691406 3.789063-1.933593l-.019532-56.917969c-.085937-.117188-1.144531-1.269531-4.082031-1.839844-18.386719-3.59375-65.84375-11.5625-124.238281-11.5625zm0 0" fill="#3762cc"/><path d="m18.707031 322.070312h442.832031c6.597657 0 11.949219 5.351563 11.949219 11.949219v85.316407c0 6.597656-5.351562 11.945312-11.949219 11.945312h-442.832031c-6.597656 0-11.945312-5.347656-11.945312-11.945312v-85.316407c0-6.597656 5.347656-11.949219 11.945312-11.949219zm0 0" fill="#6bdddd"/><path d="m443.269531 431.28125h-32.664062v-109.210938h32.664062zm0 0" fill="#ffea92"/><path d="m461.542969 435.28125h-442.835938c-8.792969 0-15.945312-7.152344-15.945312-15.945312v-85.316407c0-8.792969 7.152343-15.949219 15.945312-15.949219h442.835938c8.792969 0 15.945312 7.152344 15.945312 15.949219v85.316407c0 8.792968-7.152343 15.945312-15.945312 15.945312zm-442.835938-109.210938c-4.378906 0-7.945312 3.566407-7.945312 7.949219v85.316407c0 4.378906 3.5625 7.945312 7.945312 7.945312h442.835938c4.378906 0 7.945312-3.5625 7.945312-7.945312v-85.316407c0-4.382812-3.5625-7.949219-7.945312-7.949219zm0 0" fill="#3762cc"/><path d="m81.492188 359.824219h280.605468c5.496094 0 9.953125 4.457031 9.953125 9.953125v13.796875c0 5.5-4.457031 9.957031-9.953125 9.957031h-280.605468c-5.5 0-9.957032-4.457031-9.957032-9.957031v-13.796875c0-5.496094 4.457032-9.953125 9.957032-9.953125zm0 0" fill="#e0ebfc"/><path d="m108.984375 322.070312c-1.394531 0-2.777344-.058593-4.148437-.15625l-5.554688.011719c-29.160156 0-52.886719-29.03125-52.886719-64.710937 0-35.683594 23.726563-64.710938 52.886719-64.710938h320.195312c7.929688 0 14.378907 7.007813 14.378907 15.621094 0 8.617188-6.449219 15.628906-14.378907 15.628906h-316.921874c-15.113282 0-27.40625 15.042969-27.40625 33.535156 0 18.492188 12.292968 33.535157 27.40625 33.535157h316.921874c7.929688 0 14.378907 7.007812 14.378907 15.625 0 8.613281-6.449219 15.625-14.378907 15.625h-310.492187zm0 0" fill="#a4c9ff"/><path d="m419.476562 326.070312h-310.492187c-1.316406 0-2.71875-.046874-4.285156-.15625l-5.414063.011719c-31.371094 0-56.894531-30.824219-56.894531-68.710937 0-37.886719 25.523437-68.710938 56.886719-68.710938h320.195312c10.132813 0 18.378906 8.800782 18.378906 19.625 0 10.820313-8.246093 19.625-18.378906 19.625h-316.917968c-12.90625 0-23.40625 13.25-23.40625 29.539063 0 16.285156 10.5 29.535156 23.40625 29.535156h316.921874c10.132813 0 18.375 8.804687 18.375 19.625 0 10.824219-8.242187 19.617187-18.375 19.617187zm-314.640624-8.15625c.09375 0 .1875.003907.277343.011719 1.433594.097657 2.703125.144531 3.871094.144531h310.492187c5.722657 0 10.378907-5.210937 10.378907-11.625 0-6.40625-4.65625-11.625-10.378907-11.625h-316.921874c-17.316407 0-31.40625-16.839843-31.40625-37.535156 0-20.699218 14.085937-37.539062 31.40625-37.539062h316.921874c5.71875 0 10.375-5.214844 10.375-11.625s-4.652343-11.625-10.375-11.625h-320.195312c-26.957031 0-48.886719 27.234375-48.886719 60.710937 0 33.476563 21.929688 60.707031 48.886719 60.707031l5.546875-.007812c.003906.007812.007813.007812.007813.007812zm0 0" fill="#3762cc"/><path d="m437.515625 484.007812h-145.144531c-4.753906 0-8.609375-3.855468-8.609375-8.609374v-17.925782c0-4.753906 3.855469-8.609375 8.609375-8.609375h145.144531c4.753906 0 8.609375 3.855469 8.609375 8.609375v17.925782c0 4.753906-3.855469 8.609374-8.609375 8.609374zm0 0" fill="#eaa97d"/><path d="m437.515625 488.007812h-145.144531c-6.953125 0-12.609375-5.65625-12.609375-12.613281v-17.925781c0-6.949219 5.65625-12.605469 12.609375-12.605469h145.144531c6.953125 0 12.609375 5.65625 12.609375 12.605469v17.925781c0 6.957031-5.65625 12.613281-12.609375 12.613281zm-145.144531-35.144531c-2.542969 0-4.609375 2.066407-4.609375 4.609375v17.925782c0 2.542968 2.070312 4.609374 4.609375 4.609374h145.144531c2.542969 0 4.609375-2.066406 4.609375-4.609374v-17.925782c0-2.542968-2.070312-4.609375-4.609375-4.609375zm0 0" fill="#3762cc"/><path d="m437.515625 448.863281h-145.144531c-4.753906 0-8.609375-3.855469-8.609375-8.609375v-17.925781c0-4.753906 3.855469-8.609375 8.609375-8.609375h145.144531c4.753906 0 8.609375 3.855469 8.609375 8.609375v17.925781c0 4.753906-3.855469 8.609375-8.609375 8.609375zm0 0" fill="#eaa97d"/><path d="m437.515625 452.863281h-145.144531c-6.953125 0-12.609375-5.65625-12.609375-12.609375v-17.925781c0-6.953125 5.65625-12.609375 12.609375-12.609375h145.144531c6.953125 0 12.609375 5.65625 12.609375 12.609375v17.925781c0 6.953125-5.65625 12.609375-12.609375 12.609375zm-145.144531-35.144531c-2.542969 0-4.609375 2.066406-4.609375 4.609375v17.925781c0 2.542969 2.070312 4.609375 4.609375 4.609375h145.144531c2.542969 0 4.609375-2.066406 4.609375-4.609375v-17.925781c0-2.542969-2.070312-4.609375-4.609375-4.609375zm0 0" fill="#3762cc"/><path d="m437.515625 413.71875h-145.144531c-4.753906 0-8.609375-3.851562-8.609375-8.605469v-17.925781c0-4.753906 3.855469-8.609375 8.609375-8.609375h145.144531c4.753906 0 8.609375 3.855469 8.609375 8.609375v17.925781c0 4.75-3.855469 8.605469-8.609375 8.605469zm0 0" fill="#eaa97d"/><path d="m437.515625 417.71875h-145.144531c-6.953125 0-12.609375-5.65625-12.609375-12.609375v-17.925781c0-6.953125 5.65625-12.609375 12.609375-12.609375h145.144531c6.953125 0 12.609375 5.65625 12.609375 12.609375v17.925781c0 6.953125-5.65625 12.609375-12.609375 12.609375zm-145.144531-35.144531c-2.542969 0-4.609375 2.066406-4.609375 4.609375v17.929687c0 2.539063 2.070312 4.605469 4.609375 4.605469h145.144531c2.542969 0 4.609375-2.066406 4.609375-4.605469v-17.929687c0-2.542969-2.070312-4.609375-4.609375-4.609375zm0 0" fill="#3762cc"/><path d="m102.554688 223.75c-15.113282 0-27.40625 15.042969-27.40625 33.535156 0 18.492188 12.292968 33.535156 27.40625 33.535156h307.28125v-67.070312zm0 0" fill="#e0ebfc"/><path d="m409.835938 294.820312h-307.28125c-17.316407 0-31.40625-16.835937-31.40625-37.535156 0-20.695312 14.085937-37.539062 31.40625-37.539062h307.28125c2.207031 0 4 1.792968 4 4v67.074218c0 2.210938-1.792969 4-4 4zm-307.28125-67.070312c-12.90625 0-23.40625 13.25-23.40625 29.539062 0 16.285157 10.5 29.535157 23.40625 29.535157h303.28125v-59.070313h-303.28125zm0 0" fill="#3762cc"/><path d="m95.222656 245.980469v107.53125c0 3.082031 3.828125 4.507812 5.847656 2.175781l22.480469-25.992188c1.304688-1.507812 3.632813-1.539062 4.976563-.066406l24.132812 26.46875c2.046875 2.246094 5.785156.792969 5.785156-2.242187v-107.875zm0 0" fill="#f9a7a7"/><path d="m443.507812 289.507812c0 43.390626-35.175781 78.5625-78.566406 78.5625s-78.566406-35.171874-78.566406-78.5625c0-43.394531 35.175781-78.566406 78.566406-78.566406s78.566406 35.171875 78.566406 78.566406zm0 0" fill="#eaa97d"/><path d="m427.273438 289.507812c0 34.421876-27.90625 62.332032-62.332032 62.332032-34.425781 0-62.332031-27.910156-62.332031-62.332032 0-34.425781 27.90625-62.332031 62.332031-62.332031 34.425782 0 62.332032 27.90625 62.332032 62.332031zm0 0" fill="#ffea92"/><path d="m360.179688 327.960938c-10.488282-1.585938-18.085938-8.078126-18.945313-18.691407-.09375-1.105469.804687-2.046875 1.914063-2.046875h8.296874c.949219 0 1.734376.699219 1.894532 1.632813.625 3.691406 2.476562 6.578125 5.6875 8.101562 1.28125.609375 2.765625-.304687 2.765625-1.726562v-20.039063c0-.863281-.570313-1.613281-1.394531-1.847656-9.429688-2.664062-19.246094-6.148438-19.246094-20.878906 0-11.734375 7.71875-19.960938 19.039062-21.722656.925782-.144532 1.601563-.949219 1.601563-1.886719v-5.390625c0-1.058594.859375-1.917969 1.917969-1.917969h2.558593c1.058594 0 1.914063.859375 1.914063 1.917969v5.273437c0 .9375.675781 1.746094 1.601562 1.886719 9.765625 1.476562 16.519532 7.558594 18.027344 18.015625.164062 1.152344-.742188 2.179687-1.902344 2.179687h-8.222656c-.917969 0-1.679688-.65625-1.878906-1.550781-.613282-2.757812-2.191406-5.257812-4.621094-6.851562-1.289062-.84375-3.003906.046875-3.003906 1.585937v19.273438c0 .863281.582031 1.621094 1.417968 1.847656 9.417969 2.5625 19.132813 5.949219 19.132813 20.667969 0 10.199219-6.695313 20.09375-18.949219 22.050781-.921875.148438-1.601562.949219-1.601562 1.882812v5.398438c0 1.058594-.855469 1.914062-1.914063 1.914062h-2.558593c-1.058594 0-1.917969-.855468-1.917969-1.914062v-5.277344c.003906-.941406-.683594-1.746094-1.613281-1.886718zm1.617187-47.941407v-16.855469c0-1.296874-1.273437-2.257812-2.5-1.828124-4.050781 1.421874-6.742187 4.871093-6.742187 10.472656 0 5.1875 2.617187 8.042968 6.464843 9.925781 1.277344.628906 2.777344-.289063 2.777344-1.714844zm6.390625 18.433594v16.832031c0 1.390625 1.433594 2.304688 2.710938 1.75 4.199218-1.828125 6.53125-5.824218 6.53125-10.582031 0-5.101563-2.625-7.863281-6.476563-9.722656-1.277344-.617188-2.765625.300781-2.765625 1.722656zm0 0" fill="#eaa97d"/><path d="m364.941406 372.070312c-45.527344 0-82.566406-37.039062-82.566406-82.5625 0-45.527343 37.042969-82.566406 82.566406-82.566406 45.527344 0 82.566406 37.039063 82.566406 82.566406 0 45.523438-37.039062 82.5625-82.566406 82.5625zm0-157.128906c-41.113281 0-74.566406 33.449219-74.566406 74.566406 0 41.113282 33.453125 74.5625 74.566406 74.5625 41.117188 0 74.566406-33.449218 74.566406-74.5625 0-41.117187-33.449218-74.566406-74.566406-74.566406zm0 0" fill="#3762cc"/><path d="m455.871094 91.292969-213.304688-85.570313c-5.710937-2.289062-12.058594-2.289062-17.773437 0l-213.242188 85.542969c-10.203125 4.09375-10.015625 18.898437.292969 22.71875l91.960938 34.078125v-19.589844c0-2.496094 2.722656-4.78125 6.914062-5.695312 105.6875-23.035156 211.625-5.476563 239.910156.046875 4.410156.863281 7.3125 3.167969 7.3125 5.761719v21.554687l97.640625-36.183594c10.28125-3.808593 10.46875-18.582031.289063-22.664062zm0 0" fill="#4671c6"/><path d="m357.9375 154.140625c-.804688 0-1.601562-.242187-2.285156-.714844-1.074219-.746093-1.714844-1.972656-1.714844-3.285156v-21.546875c-.082031-.117188-1.140625-1.269531-4.078125-1.839844-29.515625-5.769531-133.933594-22.808594-238.289063-.066406-2.710937.589844-3.691406 1.691406-3.789062 1.933594l.019531 19.441406c0 1.308594-.636719 2.539062-1.710937 3.285156-1.078125.746094-2.453125.925782-3.675782.464844l-91.960937-34.078125c-6.257813-2.316406-10.359375-8.183594-10.44921875-14.945313-.08984375-6.769531 3.85546875-12.75 10.05468775-15.238281l213.246094-85.539062c6.691406-2.683594 14.058593-2.683594 20.746093 0l213.308594 85.566406c6.191406 2.484375 10.132813 8.457031 10.042969 15.210937-.09375 6.75-4.1875 12.609376-10.433594 14.921876l-97.636719 36.179687c-.453125.167969-.921875.25-1.394531.25zm-132.335938-46.941406c59.15625 0 107.175782 8.066406 125.789063 11.703125 6.40625 1.253906 10.546875 5.054687 10.546875 9.6875v15.804687l92.25-34.183593c3.785156-1.402344 5.171875-4.808594 5.210938-7.527344.035156-2.722656-1.265626-6.171875-5.023438-7.679688l-213.300781-85.566406c-4.769531-1.910156-10.023438-1.910156-14.792969 0l-213.242188 85.539062c-3.765624 1.511719-5.070312 4.972657-5.035156 7.707032.035156 2.726562 1.429688 6.140625 5.230469 7.550781l86.570313 32.078125v-13.71875c0-4.621094 3.949218-8.390625 10.0625-9.722656 39.941406-8.707032 79.886718-11.671875 115.734374-11.671875zm0 0" fill="#3762cc"/></svg>