<svg height="488pt" viewBox="0 0 488 488.252" width="488pt" xmlns="http://www.w3.org/2000/svg"><path d="m466.917969 287.332031h-385.582031c-9.507813 0-17.210938-7.703125-17.210938-17.207031v-248.917969c0-9.503906 7.703125-17.207031 17.210938-17.207031h385.582031c9.503906 0 17.207031 7.703125 17.207031 17.207031v248.917969c0 9.503906-7.703125 17.207031-17.207031 17.207031zm0 0" fill="#ffea92"/><path d="m92.125 253.335938v-215.335938c0-3.3125 2.6875-6 6-6h352c3.316406 0 6 2.6875 6 6v215.335938c0 3.3125-2.683594 6-6 6h-352c-3.3125 0-6-2.691407-6-6zm0 0" fill="#6bdddd"/><path d="m466.917969 291.335938h-385.582031c-11.699219 0-21.210938-9.515626-21.210938-21.210938v-248.917969c0-11.691406 9.515625-21.207031 21.210938-21.207031h385.578124c11.699219 0 21.210938 9.515625 21.210938 21.207031v248.917969c0 11.695312-9.511719 21.210938-21.207031 21.210938zm-385.582031-283.335938c-7.285157 0-13.210938 5.925781-13.210938 13.207031v248.917969c0 7.28125 5.925781 13.207031 13.210938 13.207031h385.578124c7.285157 0 13.210938-5.925781 13.210938-13.207031v-248.917969c0-7.28125-5.925781-13.207031-13.210938-13.207031zm0 0" fill="#3762cc"/><path d="m177.730469 97.589844h-18.703125c-.84375 0-1.523438.679687-1.523438 1.523437v13.382813c0 .84375.679688 1.523437 1.523438 1.523437h16.285156c.839844 0 1.523438.683594 1.523438 1.523438v4.445312c0 .84375-.683594 1.527344-1.523438 1.527344h-16.285156c-.84375 0-1.523438.679687-1.523438 1.523437v14.109376c0 .839843.679688 1.523437 1.523438 1.523437h18.699218c.84375 0 1.527344.683594 1.527344 1.523437v4.445313c0 .839844-.683594 1.523437-1.527344 1.523437h-27.882812c-.839844 0-1.523438-.683593-1.523438-1.523437v-53.019531c0-.84375.683594-1.523438 1.523438-1.523438h27.886719c.839843 0 1.523437.679688 1.523437 1.523438v4.441406c0 .84375-.683594 1.527344-1.523437 1.527344zm0 0" fill="#e0ebfc"/><path d="m199.386719 104.03125h39.808593c.839844 0 1.523438.683594 1.523438 1.523438v4.6875c0 .84375-.683594 1.523437-1.523438 1.523437h-39.808593c-.84375 0-1.523438-.679687-1.523438-1.523437v-4.6875c0-.839844.679688-1.523438 1.523438-1.523438zm0 18.285156h39.808593c.839844 0 1.523438.683594 1.523438 1.527344v4.683594c0 .84375-.683594 1.523437-1.523438 1.523437h-39.808593c-.84375 0-1.523438-.679687-1.523438-1.523437v-4.683594c0-.84375.679688-1.527344 1.523438-1.527344zm0 0" fill="#e0ebfc"/><path d="m323.042969 121.351562c0-8.136718-4.429688-12.324218-11.113281-12.324218-6.769532 0-11.199219 4.1875-11.199219 12.324218v23.285157c0 .84375-.683594 1.523437-1.523438 1.523437h-6.058593c-.839844 0-1.523438-.679687-1.523438-1.523437v-23.285157c0-8.136718-4.429688-12.324218-11.113281-12.324218-6.769531 0-11.199219 4.1875-11.199219 12.324218v23.285157c0 .84375-.683594 1.523437-1.523438 1.523437h-6.136718c-.84375 0-1.523438-.679687-1.523438-1.523437v-41.335938c0-.84375.679688-1.523437 1.523438-1.523437h6.136718c.839844 0 1.523438.679687 1.523438 1.523437 0 1.253907 1.433594 1.976563 2.429688 1.214844 2.882812-2.203125 6.652343-3.460937 10.699218-3.460937 6.144532 0 11.421875 2.289062 14.691406 6.757812.613282.839844 1.847657.902344 2.46875.066406 3.128907-4.246094 8.628907-6.824218 14.257813-6.824218 10.390625 0 18.285156 6.523437 18.285156 18.929687v24.65625c0 .839844-.683593 1.523437-1.523437 1.523437h-6.058594c-.839844 0-1.523438-.683593-1.523438-1.523437v-23.289063zm0 0" fill="#e0ebfc"/><path d="m366.140625 101.050781c10.054687 0 16.871094 4.609375 19.816406 12.6875.363281.996094-.382812 2.054688-1.4375 2.054688h-6.742187c-.609375 0-1.1875-.335938-1.4375-.894531-1.691406-3.753907-5.109375-6.117188-10.195313-6.117188-7.410156 0-12.324219 5.480469-12.324219 15.148438 0 9.746093 4.914063 15.222656 12.324219 15.222656 5.085938 0 8.371094-2.085938 10.164063-6.0625.253906-.5625.792968-.949219 1.410156-.949219h6.753906c1.070313 0 1.820313 1.082031 1.429688 2.078125-2.976563 7.570312-9.769532 12.667969-19.757813 12.667969-12.730469 0-21.75-9.023438-21.75-22.957031 0-13.855469 9.019531-22.878907 21.746094-22.878907zm0 0" fill="#e0ebfc"/><path d="m394.660156 112.699219c0-.441407.191406-.863281.523438-1.152344 7.367187-6.421875 14.929687-12.074219 14.929687-18.1875 0-3.328125-1.445312-5.601563-5.167969-5.601563-3.058593 0-4.882812 1.871094-5.382812 4.738282-.125.742187-.746094 1.300781-1.5 1.300781h-1.789062c-.914063 0-1.644532-.8125-1.515626-1.71875.816407-5.757813 4.988282-8.566406 10.140626-8.566406 6.480468 0 10.15625 3.894531 10.15625 9.628906 0 6.347656-5.292969 11.464844-10.023438 15.679687-1.046875.933594-.382812 2.65625 1.015625 2.65625h8.359375c.839844 0 1.523438.683594 1.523438 1.527344v1.109375c0 .84375-.683594 1.523438-1.523438 1.523438h-18.222656c-.84375 0-1.527344-.679688-1.527344-1.523438v-1.414062zm0 0" fill="#e0ebfc"/><path d="m450.125 263.335938h-352c-5.511719 0-10-4.488282-10-10v-215.335938c0-5.515625 4.488281-10 10-10h352c5.515625 0 10 4.484375 10 10v215.335938c0 5.511718-4.484375 10-10 10zm-352-227.335938c-1.101562 0-2 .898438-2 2v215.335938c0 1.101562.898438 2 2 2h352c1.105469 0 2-.898438 2-2v-215.335938c0-1.101562-.894531-2-2-2zm0 0" fill="#3762cc"/><path d="m168.882812 238.648438c-.140624 0-.277343.019531-.417968.023437v-6.238281c0-36.472656-29.5625-66.035156-66.03125-66.035156-36.472656 0-66.035156 29.5625-66.035156 66.035156v6.238281c-.140626 0-.277344-.023437-.417969-.023437-11.125 0-20.140625 9.015624-20.144531 20.140624-.003907 4.980469 2.261718 9.652344 5.765624 13.191407 6.285157 6.359375 11.632813 7.367187 16.539063 6.839843 6.816406 29.214844 33.003906 50.984376 64.292969 50.984376 31.285156 0 57.472656-21.769532 64.289062-50.984376 5.011719.535157 10.496094-.527343 16.84375-7.257812 3.394532-3.601562 5.566406-8.265625 5.457032-13.210938-.234376-10.921874-9.160157-19.703124-20.140626-19.703124zm0 0" fill="#f9cfcf"/><path d="m4.125 389.472656v94.78125h25.714844v-39.636718h.335937v-83.433594c0-12.734375 8.929688-23.367188 20.859375-26.027344-26.527344 3.910156-46.910156 26.703125-46.910156 54.316406zm0 0" fill="#a4c9ff"/><path d="m155.28125 334.5h-98.421875c-14.734375 0-26.679687 11.945312-26.679687 26.683594v123.070312h151.785156v-123.070312c-.003906-14.738282-11.949219-26.683594-26.683594-26.683594zm0 0" fill="#a4c9ff"/><path d="m30.175781 419.585938v-58.402344c0-12.734375 8.929688-23.371094 20.859375-26.027344-26.527344 3.910156-46.910156 26.703125-46.910156 54.316406v55.144532h26.050781zm0 0" fill="#a4c9ff"/><path d="m168.523438 338.03125-.003907.003906c.054688.03125.105469.066406.160157.097656zm0 0" fill="#a4c9ff"/><path d="m291.152344 352.414062-43.296875-28.792968c-2.585938-1.71875-6.074219-1.015625-7.796875 1.570312l-24.464844 36.792969c-1.871094 2.8125-5.664062 3.578125-8.476562 1.707031l-35.867188-23.847656c6.492188 4.867188 10.710938 12.601562 10.710938 21.339844v61.730468l17.429687 11.59375c16.800781 11.171876 39.476563 6.613282 50.65625-10.183593l42.671875-64.113281c1.722656-2.585938 1.019531-6.078126-1.566406-7.796876zm0 0" fill="#a4c9ff"/><path d="m219.566406 444.605469c-7.710937.003906-15.5-2.191407-22.386718-6.769531l-17.433594-11.589844c-1.113282-.738282-1.785156-1.988282-1.785156-3.332032v-61.730468c0-7.1875-3.320313-13.796875-9.109376-18.140625-1.730468-1.296875-2.117187-3.738281-.867187-5.507813 1.25-1.765625 3.679687-2.21875 5.480469-1.019531l35.867187 23.847656c.46875.3125 1.03125.421875 1.585938.3125.550781-.113281 1.03125-.433593 1.34375-.902343l24.46875-36.796876c1.421875-2.140624 3.59375-3.597656 6.113281-4.105468 2.519531-.511719 5.085938-.003906 7.222656 1.421875l43.300782 28.792969v-.003907c2.140624 1.425781 3.597656 3.597657 4.105468 6.117188.507813 2.519531 0 5.085937-1.421875 7.226562l-42.675781 64.117188c-7.796875 11.714843-20.6875 18.0625-33.808594 18.0625zm-33.605468-23.832031 15.648437 10.402343c14.9375 9.929688 35.171875 5.863281 45.109375-9.066406l42.671875-64.117187c.324219-.484376.292969-.972657.242187-1.21875-.046874-.242188-.207031-.707032-.691406-1.027344v-.003906l-43.300781-28.789063c-.488281-.324219-.976563-.292969-1.214844-.238281-.246093.046875-.710937.207031-1.03125.691406l-24.46875 36.796875c-1.496093 2.25-3.777343 3.78125-6.425781 4.316406-2.652344.527344-5.347656.003907-7.597656-1.496093l-19.816406-13.175782c.578124 2.367188.875 4.824219.875 7.335938zm0 0" fill="#3762cc"/><path d="m168.671875 342.132812c-.675781 0-1.355469-.171874-1.980469-.527343-.046875-.03125-.167968-.101563-.214844-.128907-.972656-.542968-1.628906-1.441406-1.890624-2.527343-.265626-1.085938-.015626-2.203125.605468-3.132813 1.21875-1.832031 3.695313-2.332031 5.53125-1.125l.15625.101563c1.804688 1.1875 2.339844 3.59375 1.207032 5.433593-.75 1.226563-2.066407 1.90625-3.414063 1.90625zm0 0" fill="#3762cc"/><path d="m168.523438 338.03125-.003907.003906c.054688.03125.105469.066406.160157.097656zm0 0" fill="#a4c9ff"/><path d="m291.152344 352.414062-43.296875-28.792968c-2.585938-1.71875-6.074219-1.015625-7.796875 1.570312l-24.464844 36.792969c-1.871094 2.8125-5.664062 3.578125-8.476562 1.707031l-35.867188-23.847656c6.492188 4.867188 10.710938 12.601562 10.710938 21.339844v61.730468l17.429687 11.59375c16.800781 11.171876 39.476563 6.613282 50.65625-10.183593l42.671875-64.113281c1.722656-2.585938 1.019531-6.078126-1.566406-7.796876zm0 0" fill="#a4c9ff"/><path d="m219.566406 444.605469c-7.710937.003906-15.5-2.191407-22.386718-6.769531l-17.433594-11.589844c-1.113282-.738282-1.785156-1.988282-1.785156-3.332032v-61.730468c0-7.1875-3.320313-13.796875-9.109376-18.140625-1.730468-1.296875-2.117187-3.738281-.867187-5.507813 1.25-1.765625 3.679687-2.21875 5.480469-1.019531l35.867187 23.847656c.46875.3125 1.03125.421875 1.585938.3125.550781-.113281 1.03125-.433593 1.34375-.902343l24.46875-36.796876c1.421875-2.140624 3.59375-3.597656 6.113281-4.105468 2.519531-.511719 5.085938-.003906 7.222656 1.421875l43.300782 28.792969v-.003907c2.140624 1.425781 3.597656 3.597657 4.105468 6.117188.507813 2.519531 0 5.085937-1.421875 7.226562l-42.675781 64.117188c-7.796875 11.714843-20.6875 18.0625-33.808594 18.0625zm-33.605468-23.832031 15.648437 10.402343c14.9375 9.929688 35.171875 5.863281 45.109375-9.066406l42.671875-64.117187c.324219-.484376.292969-.972657.242187-1.21875-.046874-.242188-.207031-.707032-.691406-1.027344v-.003906l-43.300781-28.789063c-.488281-.324219-.976563-.292969-1.214844-.238281-.246093.046875-.710937.207031-1.03125.691406l-24.46875 36.796875c-1.496093 2.25-3.777343 3.78125-6.425781 4.316406-2.652344.527344-5.347656.003907-7.597656-1.496093l-19.816406-13.175782c.578124 2.367188.875 4.824219.875 7.335938zm0 0" fill="#3762cc"/><path d="m168.671875 342.132812c-.675781 0-1.355469-.171874-1.980469-.527343-.046875-.03125-.167968-.101563-.214844-.128907-.972656-.542968-1.628906-1.441406-1.890624-2.527343-.265626-1.085938-.015626-2.203125.605468-3.132813 1.21875-1.832031 3.695313-2.332031 5.53125-1.125l.15625.101563c1.804688 1.1875 2.339844 3.59375 1.207032 5.433593-.75 1.226563-2.066407 1.90625-3.414063 1.90625zm0 0" fill="#3762cc"/><path d="m181.960938 488.253906h-152.121094c-2.207032 0-4-1.792968-4-4v-71.394531c0-.574219.121094-1.117187.335937-1.609375v-50.066406c0-16.921875 13.765625-30.6875 30.683594-30.6875h98.421875c16.917969 0 30.679688 13.765625 30.679688 30.6875v123.070312c0 2.207032-1.789063 4-4 4zm-148.121094-8h144.121094v-119.070312c0-12.507813-10.175782-22.6875-22.679688-22.6875h-98.421875c-12.507813 0-22.683594 10.179687-22.683594 22.6875v51.675781c0 .570313-.121093 1.113281-.335937 1.605469zm0 0" fill="#3762cc"/><path d="m29.839844 488.253906h-25.714844c-2.207031 0-4-1.792968-4-4v-94.78125c0-28.996094 21.636719-54.046875 50.328125-58.277344 2.132813-.3125 4.125 1.113282 4.515625 3.230469.390625 2.117188-.960938 4.164063-3.0625 4.628907-10.273438 2.292968-17.726562 11.59375-17.726562 22.125v83.433593c0 .574219-.121094 1.117188-.335938 1.609375v38.03125c-.003906 2.207032-1.792969 4-4.003906 4zm-21.714844-8h17.714844v-35.636718c0-.574219.121094-1.117188.335937-1.609376v-81.824218c0-4.480469 1-8.792969 2.796875-12.703125-12.6875 9.375-20.847656 24.441406-20.847656 40.992187zm0 0" fill="#3762cc"/><path d="m67.570312 267.757812c-4.085937 0-7.402343-3.316406-7.402343-7.40625v-12.339843c0-4.085938 3.3125-7.402344 7.402343-7.402344 4.089844 0 7.40625 3.3125 7.40625 7.402344v12.339843c0 4.089844-3.316406 7.40625-7.40625 7.40625zm0 0" fill="#4671c6"/><path d="m137.292969 267.757812c-4.089844 0-7.40625-3.316406-7.40625-7.40625v-12.339843c0-4.085938 3.316406-7.402344 7.40625-7.402344 4.085937 0 7.402343 3.3125 7.402343 7.402344v12.339843c0 4.089844-3.316406 7.40625-7.402343 7.40625zm0 0" fill="#4671c6"/><path d="m79.542969 222.148438h-60.773438c-2.589843 0-4.691406-2.101563-4.691406-4.691407v-22.0625c0-32.203125 26.109375-58.308593 58.3125-58.308593h35.140625c7.726562 0 13.992188 6.265624 13.992188 13.992187v29.085937c.003906 23.1875-18.792969 41.984376-41.980469 41.984376zm0 0" fill="#4671c6"/><path d="m102.433594 333.804688c-31.621094 0-58.867188-20.761719-67.367188-50.886719-5.882812-.257813-11.136718-2.890625-16.308594-8.121094-4.464843-4.519531-6.925781-10.203125-6.925781-16.007813.003907-12.09375 8.949219-22.136718 20.5625-23.875v-2.480468c0-38.621094 31.417969-70.035156 70.039063-70.035156 38.617187 0 70.03125 31.414062 70.03125 70.035156v2.488281c11.378906 1.726563 20.304687 11.535156 20.558594 23.34375.125 5.730469-2.203126 11.429687-6.542969 16.039063-5.242188 5.558593-10.613281 8.351562-16.683594 8.617187-8.5 30.121094-35.746094 50.882813-67.363281 50.882813zm-64.289063-58.980469c1.839844 0 3.464844 1.265625 3.890625 3.089843 6.578125 28.199219 31.414063 47.890626 60.398438 47.890626 28.976562 0 53.8125-19.691407 60.390625-47.890626.460937-1.964843 2.335937-3.289062 4.320312-3.066406 3.523438.367188 7.871094-.046875 13.511719-6.027344 2.894531-3.074218 4.449219-6.761718 4.367188-10.382812-.1875-8.683594-7.398438-15.753906-16.085938-15.785156-.105469.003906-.347656.019531-.386719.019531-1.167969.039063-2.117187-.386719-2.882812-1.140625-.769531-.753906-1.203125-1.785156-1.203125-2.859375v-6.238281c0-34.207032-27.828125-62.035156-62.03125-62.035156-34.210938 0-62.039063 27.828124-62.039063 62.035156v6.238281c0 1.074219-.433593 2.105469-1.199219 2.859375-.75.734375-1.753906 1.140625-2.800781 1.140625-.085937 0-.371093-.015625-.464843-.019531-8.851563 0-16.09375 7.238281-16.097657 16.140625 0 3.683593 1.636719 7.371093 4.613281 10.378906 5.589844 5.648437 9.847657 6.027344 13.273438 5.675781.140625-.015625.285156-.023437.425781-.023437zm0 0" fill="#3762cc"/><g fill="#4671c6"><path d="m67.570312 267.757812c-4.085937 0-7.402343-3.316406-7.402343-7.40625v-12.339843c0-4.085938 3.3125-7.402344 7.402343-7.402344 4.089844 0 7.40625 3.3125 7.40625 7.402344v12.339843c0 4.089844-3.316406 7.40625-7.40625 7.40625zm0 0"/><path d="m137.292969 267.757812c-4.089844 0-7.40625-3.316406-7.40625-7.40625v-12.339843c0-4.085938 3.316406-7.402344 7.40625-7.402344 4.085937 0 7.402343 3.3125 7.402343 7.402344v12.339843c0 4.089844-3.316406 7.40625-7.402343 7.40625zm0 0"/><path d="m167.652344 222.148438c.527344 3.351562.8125 6.78125.8125 10.28125v6.242187c.140625-.003906.277344-.023437.417968-.023437 3.910157 0 7.546876 1.132812 10.636719 3.058593v-19.558593zm0 0"/><path d="m25.347656 222.148438v19.558593c3.089844-1.925781 6.722656-3.058593 10.632813-3.058593.140625 0 .277343.019531.417969.023437v-6.242187c0-3.5.289062-6.933594.8125-10.28125zm0 0"/><path d="m151.234375 222.148438h34.878906c2.582031 0 4.671875-2.09375 4.671875-4.671876v-26.675781c0-29.664062-24.050781-53.710937-53.714844-53.710937h-1.667968c-7.738282 0-14.011719 6.273437-14.011719 14.011718v41.203126c0 16.480468 13.363281 29.84375 29.84375 29.84375zm0 0"/><path d="m79.542969 222.148438h-60.773438c-2.589843 0-4.691406-2.101563-4.691406-4.691407v-22.0625c0-32.203125 26.109375-58.308593 58.3125-58.308593h35.140625c7.726562 0 13.992188 6.265624 13.992188 13.992187v29.085937c.003906 23.1875-18.792969 41.984376-41.980469 41.984376zm0 0"/></g><path d="m186.113281 226.148438h-34.878906c-18.660156 0-33.84375-15.183594-33.84375-33.84375v-41.207032c0-9.933594 8.082031-18.011718 18.011719-18.011718h1.667968c31.824219 0 57.714844 25.890624 57.714844 57.714843v26.675781c0 4.78125-3.890625 8.671876-8.671875 8.671876zm-50.710937-85.0625c-5.519532 0-10.011719 4.492187-10.011719 10.011718v41.207032c0 14.25 11.59375 25.84375 25.84375 25.84375h34.878906c.371094 0 .671875-.300782.671875-.671876v-26.675781c0-27.410156-22.304687-49.710937-49.714844-49.710937h-1.667968zm0 0" fill="#3762cc"/><path d="m79.542969 226.148438h-60.773438c-4.792969 0-8.691406-3.898438-8.691406-8.691407v-22.0625c0-34.355469 27.957031-62.308593 62.3125-62.308593h35.140625c9.921875 0 17.992188 8.070312 17.992188 17.992187v29.085937c.003906 25.355469-20.625 45.984376-45.980469 45.984376zm-7.152344-85.0625c-29.945313 0-54.308594 24.363281-54.308594 54.308593v22.0625c0 .382813.308594.691407.691407.691407h60.769531c20.945312 0 37.984375-17.039063 37.984375-37.984376v-29.082031c0-5.511719-4.480469-9.992187-9.992188-9.992187h-35.144531zm0 0" fill="#3762cc"/><path d="m102.433594 329.804688c-11.90625 0-23.0625-3.164063-32.703125-8.679688v27.089844c0 4.878906 3.308593 8.832031 7.382812 8.832031h50.640625c4.074219 0 7.382813-3.953125 7.382813-8.832031v-27.089844c-9.644531 5.511719-20.796875 8.679688-32.703125 8.679688zm0 0" fill="#f9cfcf"/><path d="m127.753906 361.050781h-50.640625c-6.277343 0-11.382812-5.757812-11.382812-12.835937v-27.089844c0-1.425781.761719-2.742188 1.992187-3.460938 1.238282-.710937 2.757813-.714843 3.996094-.011718 9.324219 5.335937 19.945312 8.152344 30.714844 8.152344 10.765625 0 21.386718-2.820313 30.714844-8.152344 1.234374-.707032 2.757812-.707032 3.992187.011718 1.234375.714844 1.992187 2.035157 1.992187 3.460938v27.089844c.003907 7.078125-5.101562 12.835937-11.378906 12.835937zm-54.023437-33.402343v20.566406c0 2.625 1.550781 4.835937 3.382812 4.835937h50.640625c1.832032 0 3.378906-2.210937 3.378906-4.835937v-20.570313c-8.992187 4.046875-18.789062 6.160157-28.703124 6.160157-9.910157 0-19.710938-2.113282-28.699219-6.15625zm0 0" fill="#3762cc"/><path d="m278.546875 344.050781-20.558594-13.835937c-8.078125-5.4375-10.21875-16.390625-4.78125-24.46875l18.042969-26.808594c3.113281-4.625 9.382812-5.851562 14.007812-2.738281l33.0625 22.25c4.625 3.113281 5.851563 9.382812 2.738282 14.007812l-18.042969 26.8125c-5.4375 8.078125-16.394531 10.214844-24.46875 4.78125zm0 0" fill="#f9cfcf"/><path d="m288.34375 351.0625c-4.257812 0-8.417969-1.261719-12.035156-3.691406l-20.554688-13.839844c-9.890625-6.65625-12.527344-20.125-5.867187-30.015625l18.042969-26.8125c2.101562-3.125 5.292968-5.238281 8.984374-5.960937 3.695313-.71875 7.453126.039062 10.574219 2.140624l33.058594 22.25c6.449219 4.339844 8.164063 13.113282 3.824219 19.558594l-18.042969 26.8125c-3.222656 4.789063-8.125 8.039063-13.792969 9.148438-1.394531.273437-2.800781.410156-4.191406.410156zm-7.5625-10.328125c3.015625 2.03125 6.644531 2.761719 10.222656 2.066406 3.570313-.695312 6.65625-2.746093 8.691406-5.765625l18.042969-26.8125c.90625-1.347656 1.234375-2.96875.921875-4.566406-.308594-1.597656-1.222656-2.976562-2.574218-3.882812l-33.0625-22.253907c-1.351563-.910156-2.980469-1.234375-4.570313-.925781-1.597656.3125-2.976563 1.226562-3.882813 2.578125l-18.042968 26.808594c-4.199219 6.234375-2.539063 14.71875 3.695312 18.914062zm0 0" fill="#3762cc"/><path d="m278.398438 338.960938c-2.914063-1.730469-3.871094-5.492188-2.140626-8.402344l77.933594-131.292969c1.730469-2.910156 5.492188-3.871094 8.402344-2.140625 2.914062 1.726562 3.871094 5.488281 2.140625 8.402344l-77.933594 131.289062c-1.730469 2.910156-5.492187 3.871094-8.402343 2.144532zm0 0" fill="#e0ebfc"/><path d="m277.101562 288.910156 18.578126-2.148437 4.582031 39.644531c.1875 1.628906-.976563 3.097656-2.601563 3.285156-8.632812 1-16.441406-5.191406-17.441406-13.824218zm0 0" fill="#f9cfcf"/><path d="m266.96875 337.988281c-.710938 0-1.429688-.1875-2.074219-.578125l-13.488281-8.1875c-.464844-.285156-.867188-.660156-1.183594-1.101562-5.191406-7.300782-5.328125-17.1875-.335937-24.605469l18.046875-26.8125c2.101562-3.125 5.289062-5.238281 8.984375-5.960937 3.699219-.71875 7.449219.039062 10.570312 2.136718l1.523438 1.023438c.25.171875.480469.371094.6875.589844l8.902343 9.542968c.585938.625.953126 1.421875 1.046876 2.269532l4.582031 39.648437c.445312 3.8125-2.300781 7.273437-6.117188 7.714844-7.867187.90625-15.234375-2.976563-19.125-9.347657l-8.792969 12.03125c-.773437 1.0625-1.992187 1.636719-3.226562 1.636719zm-10.660156-15.148437 9.597656 5.824218 10.15625-13.894531-.441406-3.835937c-.019532-.15625-.027344-.3125-.027344-.464844 0-2.003906 1.503906-3.730469 3.542969-3.964844 2.191406-.269531 4.179687 1.316406 4.429687 3.515625l.625 5.386719c.707032 6.082031 5.9375 10.5625 11.972656 10.386719l-4.304687-37.261719-7.695313-8.246094-1.140624-.769531c-2.789063-1.875-6.574219-1.132813-8.453126 1.652344l-18.042968 26.8125c-3.003906 4.457031-3.0625 10.332031-.21875 14.859375zm0 0" fill="#3762cc"/><path d="m114.050781 286.171875h-23.238281c-1.265625 0-2.292969 1.027344-2.292969 2.292969v5.734375c0 2.121093.90625 4.179687 2.578125 5.867187 2.003906 2.019532 4.941406 3.324219 8.164063 3.695313.128906-.070313 4.101562-.042969 6.433593-.019531 3.183594-.382813 6.089844-1.679688 8.070313-3.675782 1.671875-1.6875 2.578125-3.746094 2.578125-5.867187v-5.734375c0-1.265625-1.027344-2.292969-2.292969-2.292969zm0 0" fill="#f9a7a7"/><path d="m99.261719 305.757812c-.074219 0-.152344-.003906-.226563-.015624-3.726562-.425782-7.050781-1.941407-9.359375-4.269532-2.039062-2.050781-3.15625-4.636718-3.15625-7.277344v-5.734374c0-2.367188 1.925781-4.289063 4.289063-4.289063h23.242187c2.367188 0 4.292969 1.925781 4.292969 4.289063v5.734374c0 2.640626-1.125 5.222657-3.160156 7.277344-2.28125 2.296875-5.5625 3.804688-9.246094 4.253906-.085938.011719-.175781.007813-.261719.011719-4.738281-.042969-5.855469-.019531-6.105469-.003906-.097656.019531-.203124.023437-.308593.023437zm-8.449219-17.585937c-.164062 0-.292969.128906-.292969.289063v5.734374c0 1.601563.691407 3.140626 2 4.457032 1.605469 1.625 4.066407 2.742187 6.777344 3.089844.8125-.050782 2.457031-.042969 6.289063-.007813 2.742187-.355469 5.140624-1.445313 6.765624-3.082031 1.304688-1.316406 1.996094-2.859375 1.996094-4.457032v-5.734374c0-.160157-.128906-.289063-.292968-.289063zm0 0" fill="#3762cc"/><path d="m179.515625 245.707031c-.734375 0-1.46875-.203125-2.117187-.605469-2.570313-1.605468-5.515626-2.453124-8.515626-2.453124-.097656.007812-.320312.023437-.417968.023437-1.050782 0-2.0625-.414063-2.808594-1.152344-.761719-.75-1.191406-1.777343-1.191406-2.847656v-6.238281c0-3.179688-.257813-6.429688-.765625-9.664063-.179688-1.15625.152343-2.332031.914062-3.222656.757813-.886719 1.867188-1.398437 3.039063-1.398437h11.863281c2.207031 0 4 1.792968 4 4v19.558593c0 1.453125-.789063 2.792969-2.058594 3.5-.605469.335938-1.273437.5-1.941406.5zm-7.050781-10.789062c1.03125.15625 2.050781.378906 3.050781.667969v-9.441407h-3.339844c.191407 2.109375.289063 4.210938.289063 6.285157zm0 0" fill="#3762cc"/><path d="m25.347656 245.707031c-.667968 0-1.335937-.164062-1.941406-.5-1.273438-.707031-2.058594-2.046875-2.058594-3.5v-19.558593c0-2.207032 1.789063-4 4-4h11.863282c1.167968 0 2.277343.511718 3.039062 1.398437.761719.890625 1.09375 2.066406.910156 3.222656-.503906 3.234375-.761718 6.484375-.761718 9.664063v6.238281c0 1.070313-.429688 2.097656-1.191407 2.847656-.761719.753907-1.761719 1.171875-2.863281 1.152344-.082031 0-.363281-.015625-.441406-.023437-2.925782 0-5.871094.847656-8.441406 2.453124-.644532.402344-1.375.605469-2.113282.605469zm4-19.558593v9.4375c1-.289063 2.019532-.511719 3.046875-.664063v-2.488281c0-2.078125.097657-4.175782.292969-6.285156zm0 0" fill="#3762cc"/><path d="m476.003906 461.058594h-271.117187c-4.488281 0-8.121094-3.632813-8.121094-8.121094v-31.878906c0-4.488282 3.632813-8.121094 8.121094-8.121094h271.117187c4.484375 0 8.121094 3.632812 8.121094 8.121094v31.878906c0 4.488281-3.636719 8.121094-8.121094 8.121094zm0 0" fill="#e0ebfc"/><path d="m220.855469 461.058594h239.175781v23.195312h-239.175781zm0 0" fill="#e0ebfc"/><path d="m476.003906 465.0625h-271.117187c-6.6875 0-12.125-5.4375-12.125-12.125v-31.878906c0-6.6875 5.4375-12.125 12.125-12.125h271.117187c6.6875 0 12.125 5.4375 12.125 12.125v31.878906c-.003906 6.6875-5.441406 12.125-12.125 12.125zm-271.117187-48.128906c-2.273438 0-4.125 1.851562-4.125 4.125v31.878906c0 2.273438 1.851562 4.125 4.125 4.125h271.117187c2.273438 0 4.125-1.851562 4.125-4.125v-31.878906c0-2.273438-1.851562-4.125-4.125-4.125zm0 0" fill="#3762cc"/><path d="m460.03125 488.253906h-239.175781c-2.207031 0-4-1.792968-4-4v-23.195312c0-2.207032 1.792969-4 4-4h239.175781c2.207031 0 4 1.792968 4 4v23.195312c0 2.207032-1.789062 4-4 4zm-235.175781-8h231.175781v-15.195312h-231.175781zm0 0" fill="#3762cc"/><path d="m308.195312 372.9375h163.222657c2.425781 0 4.386719 1.960938 4.386719 4.386719v31.222656c0 2.421875-1.960938 4.386719-4.386719 4.386719h-163.222657c-2.421874 0-4.386718-1.964844-4.386718-4.386719v-31.222656c-.003906-2.425781 1.964844-4.386719 4.386718-4.386719zm0 0" fill="#6bdddd"/><path d="m464.671875 412.933594h-12.039063v-40h12.039063zm0 0" fill="#ffea92"/><path d="m471.417969 416.933594h-163.222657c-4.625 0-8.386718-3.761719-8.386718-8.386719v-31.222656c0-4.625 3.761718-8.386719 8.386718-8.386719h163.222657c4.625 0 8.386719 3.761719 8.386719 8.386719v31.222656c0 4.625-3.761719 8.386719-8.386719 8.386719zm-163.222657-40c-.214843 0-.390624.175781-.390624.386718v31.222657c0 .214843.175781.390625.390624.390625h163.21875c.214844 0 .390626-.175782.390626-.390625v-31.222657c0-.210937-.175782-.386718-.390626-.386718zm0 0" fill="#3762cc"/><path d="m331.335938 386.761719h103.429687c2.019531 0 3.660156 1.636719 3.660156 3.660156v5.03125c0 2.019531-1.640625 3.65625-3.660156 3.65625h-103.429687c-2.023438 0-3.660157-1.636719-3.660157-3.65625v-5.03125c.003907-2.023437 1.636719-3.660156 3.660157-3.660156zm0 0" fill="#e0ebfc"/><path d="m342.273438 372.878906c-.53125 0-1.054688-.023437-1.578126-.0625l-2.109374.003906c-11.09375 0-20.117188-11.039062-20.117188-24.609374 0-13.570313 9.023438-24.609376 20.117188-24.609376h121.777343c3.011719 0 5.464844 2.667969 5.464844 5.941407 0 3.277343-2.449219 5.941406-5.464844 5.941406h-120.535156c-5.746094 0-10.421875 5.722656-10.421875 12.753906 0 7.035157 4.675781 12.753907 10.421875 12.753907h120.535156c3.011719 0 5.464844 2.667968 5.464844 5.945312 0 3.273438-2.449219 5.941406-5.464844 5.941406zm0 0" fill="#4671c6"/><path d="m460.363281 376.878906h-118.089843c-.574219 0-1.144532-.023437-1.710938-.0625l-1.96875.003906c-13.304688 0-24.125-12.835937-24.125-28.609374 0-15.777344 10.820312-28.613282 24.117188-28.613282h121.777343c5.222657 0 9.464844 4.460938 9.464844 9.945313s-4.242187 9.941406-9.464844 9.941406h-120.535156c-3.480469 0-6.421875 4.007813-6.421875 8.753906 0 4.746094 2.941406 8.753907 6.421875 8.753907h120.535156c5.222657 0 9.464844 4.460937 9.464844 9.945312s-4.242187 9.941406-9.464844 9.941406zm-119.667969-8.0625c.097657 0 .191407.003906.285157.011719.429687.03125.859375.050781 1.292969.050781h118.089843c.78125 0 1.464844-.910156 1.464844-1.945312s-.6875-1.941406-1.464844-1.941406h-120.535156c-7.953125 0-14.425781-7.519532-14.425781-16.757813s6.472656-16.753906 14.425781-16.753906h120.535156c.78125 0 1.464844-.90625 1.464844-1.941407 0-1.035156-.6875-1.941406-1.464844-1.941406h-121.777343c-8.886719 0-16.117188 9.246094-16.117188 20.609375 0 11.367188 7.226562 20.613281 16.117188 20.613281l2.101562-.003906zm0 0" fill="#3762cc"/><path d="m339.828125 335.484375c-5.746094 0-10.421875 5.722656-10.421875 12.753906 0 7.035157 4.675781 12.753907 10.421875 12.753907h116.867187v-25.507813zm0 0" fill="#e0ebfc"/><path d="m456.695312 364.992188h-116.867187c-7.953125 0-14.425781-7.515626-14.425781-16.753907s6.472656-16.753906 14.425781-16.753906h116.867187c2.207032 0 4 1.792969 4 4v25.507813c0 2.210937-1.792968 4-4 4zm-116.867187-25.507813c-3.480469 0-6.421875 4.007813-6.421875 8.753906 0 4.746094 2.941406 8.753907 6.421875 8.753907h112.867187v-17.507813zm0 0" fill="#3762cc"/><path d="m342.5 343.9375v40.894531c0 1.171875 1.457031 1.714844 2.222656.828125l8.550782-9.882812c.496093-.574219 1.382812-.585938 1.890624-.023438l9.179688 10.0625c.777344.855469 2.199219.304688 2.199219-.851562v-41.023438h-24.042969zm0 0" fill="#f9a7a7"/></svg>